<?xml version="1.0" standalone="no"?>
<!DOCTYPE svg PUBLIC "-//W3C//DTD SVG 20010904//EN"
    "http://www.w3.org/TR/2001/REC-SVG-20010904/DTD/svg10.dtd">
<svg version="1.0" xmlns="http://www.w3.org/2000/svg"
     width="166.000000pt" height="166.000000pt" viewBox="0 0 166.000000 166.000000"
     preserveAspectRatio="xMidYMid meet">

    <style>
        @media (prefers-color-scheme: light) {
        .steam2steam-svg {
        fill: #000000;
        }
        }

        @media (prefers-color-scheme: dark) {
        .steam2steam-svg {
        fill: #FFFFFF;
        }
        }
    </style>
    <g class="steam2steam-svg"
       transform="translate(0.000000,166.000000) scale(0.100000,-0.100000)"
       fill="currentColor" stroke="none">
        <path d="M0 830 l0 -830 830 0 830 0 0 830 0 830 -830 0 -830 0 0 -830z m1025
725 c378 -102 617 -486 541 -865 -56 -275 -237 -479 -506 -571 -88 -30 -105
-33 -225 -33 -172 -1 -277 29 -416 119 -253 163 -382 469 -325 769 29 149 93
270 201 381 107 109 255 188 406 214 74 14 251 6 324 -14z"/>
        <path d="M705 1496 c-422 -81 -659 -514 -503 -916 75 -194 263 -358 464 -406
92 -23 250 -22 334 0 142 38 303 150 381 263 85 124 122 241 123 393 0 117
-17 198 -63 295 -81 172 -250 311 -436 360 -86 22 -217 27 -300 11z m242 -71
c47 -9 111 -31 161 -55 254 -126 388 -433 305 -701 l-16 -54 -38 193 c-40 201
-51 232 -111 289 -44 42 -96 63 -177 70 -58 5 -68 3 -85 -16 -18 -19 -29 -21
-148 -21 -116 0 -132 2 -158 21 -25 19 -37 21 -96 15 -83 -8 -121 -24 -172
-70 -55 -50 -74 -103 -112 -305 -36 -190 -40 -195 -66 -64 -46 235 60 479 265
612 140 90 282 117 448 86z m-292 -345 c17 -18 31 -20 173 -20 145 0 157 1
178 21 48 45 189 -1 230 -75 23 -41 84 -331 84 -399 0 -71 -76 -123 -140 -97
-16 7 -56 47 -91 92 -34 44 -72 84 -86 89 -41 15 -319 11 -352 -5 -15 -8 -53
-48 -84 -89 -62 -80 -97 -103 -146 -92 -40 9 -81 58 -81 97 0 49 61 360 76
389 18 36 79 88 112 95 15 3 32 7 37 9 31 10 74 3 90 -15z m385 -527 c90 -114
153 -143 238 -108 l37 16 -55 -56 c-229 -234 -609 -240 -844 -14 -67 65 -69
68 -34 54 86 -34 149 -6 238 108 l62 77 148 0 148 0 62 -77z"/>
        <path d="M1064 1012 c-33 -23 -12 -82 30 -82 28 0 46 18 46 45 0 37 -44 59
-76 37z"/>
        <path d="M537 993 c-4 -3 -7 -23 -7 -44 0 -37 -1 -38 -42 -41 -40 -3 -43 -5
-43 -33 0 -28 3 -30 42 -33 42 -3 42 -3 45 -45 3 -38 6 -42 32 -45 34 -4 46
10 46 56 0 31 2 32 40 32 39 0 40 1 40 35 0 34 -1 35 -40 35 -39 0 -40 1 -40
33 0 18 -5 38 -12 45 -13 13 -50 16 -61 5z"/>
        <path d="M966 911 c-25 -28 -17 -64 18 -76 24 -8 31 -6 47 14 24 29 24 36 -1
61 -25 25 -42 25 -64 1z"/>
        <path d="M1155 910 c-24 -27 -13 -68 22 -76 20 -5 31 -2 45 16 23 28 23 35 -2
60 -25 25 -42 25 -65 0z"/>
        <path d="M1055 807 c-18 -27 -12 -53 17 -68 27 -15 57 -2 64 28 14 55 -50 87
-81 40z"/>
    </g>
</svg>
